<svg width="420" height="420" viewBox="0 0 420 420" fill="none" xmlns="http://www.w3.org/2000/svg">
<path d="M127 9.50001C127 4.2533 131.253 0 136.5 0C141.747 0 146 4.25329 146 9.5V410.5C146 415.747 141.747 420 136.5 420C131.253 420 127 415.747 127 410.5V9.50001Z" fill="#D9D9D9"/>
<path d="M9.50001 292C4.2533 292 0 287.747 0 282.5C0 277.253 4.25329 273 9.5 273H410.5C415.747 273 420 277.253 420 282.5C420 287.747 415.747 292 410.5 292H9.50001Z" fill="#D9D9D9"/>
<path d="M9.50001 146C4.2533 146 0 141.747 0 136.5C0 131.253 4.25329 127 9.5 127H410.5C415.747 127 420 131.253 420 136.5C420 141.747 415.747 146 410.5 146H9.50001Z" fill="#D9D9D9"/>
<path d="M273 9.50001C273 4.2533 277.253 0 282.5 0C287.747 0 292 4.25329 292 9.5V410.5C292 415.747 287.747 420 282.5 420C277.253 420 273 415.747 273 410.5V9.50001Z" fill="#D9D9D9"/>
</svg>
