<svg width="79" height="79" viewBox="0 0 79 79" fill="none" xmlns="http://www.w3.org/2000/svg">
<path d="M3.31205 75.9362C0.0709075 72.695 0.0709075 67.4401 3.31205 64.1989L64.1989 3.31206C67.4401 0.0709093 72.695 0.0709093 75.9362 3.31206C79.1773 6.5532 79.1773 11.8081 75.9362 15.0493L15.0493 75.9362C11.8081 79.1773 6.5532 79.1773 3.31205 75.9362Z" fill="#FF7C7C"/>
<path d="M75.9362 75.9362C72.695 79.1773 67.4401 79.1773 64.1989 75.9362L3.31206 15.0493C0.0709089 11.8081 0.0709075 6.5532 3.31205 3.31206C6.5532 0.0709093 11.8081 0.0709093 15.0493 3.31206L75.9362 64.1989C79.1773 67.4401 79.1773 72.695 75.9362 75.9362Z" fill="#FF7C7C"/>
</svg>
